{
    "asset" : {
        "generator" : "Khronos glTF Blender I/O v1.6.16",
        "version" : "2.0"
    },
    "scene" : 0,
    "scenes" : [
        {
            "name" : "Scene",
            "nodes" : [
                0,
                1
            ]
        }
    ],
    "nodes" : [
        {
            "mesh" : 0,
            "name" : "Circle",
            "scale" : [
                0.6775562167167664,
                0.6775562167167664,
                0.6775562167167664
            ],
            "translation" : [
                0,
                0.5,
                0
            ]
        },
        {
            "mesh" : 1,
            "name" : "dummy",
            "rotation" : [
                0.7071068286895752,
                0,
                0,
                0.7071068286895752
            ],
            "scale" : [
                0.5429415702819824,
                0.5429416298866272,
                0.5429419875144958
            ]
        }
    ],
    "materials" : [
        {
            "doubleSided" : true,
            "name" : "FishingHat",
            "pbrMetallicRoughness" : {
                "baseColorTexture" : {
                    "index" : 0
                },
                "metallicFactor" : 0,
                "roughnessFactor" : 0.5
            }
        },
        {
            "name" : "Dummy1Mtl",
            "pbrMetallicRoughness" : {
                "baseColorTexture" : {
                    "index" : 1
                },
                "metallicFactor" : 0
            }
        },
        {
            "alphaMode" : "BLEND",
            "doubleSided" : true,
            "name" : "Humanoidrootpart1Mtl",
            "pbrMetallicRoughness" : {
                "baseColorFactor" : [
                    0.37361499667167664,
                    0.3685910105705261,
                    0.383774995803833,
                    0
                ],
                "metallicFactor" : 0
            }
        }
    ],
    "meshes" : [
        {
            "name" : "Circle",
            "primitives" : [
                {
                    "attributes" : {
                        "POSITION" : 0,
                        "NORMAL" : 1,
                        "TEXCOORD_0" : 2
                    },
                    "indices" : 3,
                    "material" : 0
                }
            ]
        },
        {
            "name" : "dummy",
            "primitives" : [
                {
                    "attributes" : {
                        "POSITION" : 4,
                        "NORMAL" : 5,
                        "TEXCOORD_0" : 6
                    },
                    "indices" : 7,
                    "material" : 1
                },
                {
                    "attributes" : {
                        "POSITION" : 8,
                        "NORMAL" : 9,
                        "TEXCOORD_0" : 10
                    },
                    "indices" : 11,
                    "material" : 2
                }
            ]
        }
    ],
    "textures" : [
        {
            "sampler" : 0,
            "source" : 0
        },
        {
            "sampler" : 0,
            "source" : 1
        }
    ],
    "images" : [
        {
            "bufferView" : 4,
            "mimeType" : "image/png",
            "name" : "Untitled"
        },
        {
            "bufferView" : 9,
            "mimeType" : "image/png",
            "name" : "Dummy1_diff"
        }
    ],
    "accessors" : [
        {
            "bufferView" : 0,
            "componentType" : 5126,
            "count" : 3745,
            "max" : [
                0.8597493767738342,
                1.5689926147460938,
                0.8566612601280212
            ],
            "min" : [
                -0.8685638904571533,
                0.8816391825675964,
                -0.8601188063621521
            ],
            "type" : "VEC3"
        },
        {
            "bufferView" : 1,
            "componentType" : 5126,
            "count" : 3745,
            "type" : "VEC3"
        },
        {
            "bufferView" : 2,
            "componentType" : 5126,
            "count" : 3745,
            "type" : "VEC2"
        },
        {
            "bufferView" : 3,
            "componentType" : 5123,
            "count" : 13962,
            "type" : "SCALAR"
        },
        {
            "bufferView" : 5,
            "componentType" : 5126,
            "count" : 2009,
            "max" : [
                1.9999752044677734,
                0.5989093780517578,
                2.611194133758545
            ],
            "min" : [
                -1.9999847412109375,
                -0.5988922119140625,
                -2.490015983581543
            ],
            "type" : "VEC3"
        },
        {
            "bufferView" : 6,
            "componentType" : 5126,
            "count" : 2009,
            "type" : "VEC3"
        },
        {
            "bufferView" : 7,
            "componentType" : 5126,
            "count" : 2009,
            "type" : "VEC2"
        },
        {
            "bufferView" : 8,
            "componentType" : 5123,
            "count" : 3294,
            "type" : "SCALAR"
        },
        {
            "bufferView" : 10,
            "componentType" : 5126,
            "count" : 24,
            "max" : [
                0.9999752044677734,
                0.5000095367431641,
                0.6111941337585449
            ],
            "min" : [
                -0.9999847412109375,
                -0.49999046325683594,
                -1.388805866241455
            ],
            "type" : "VEC3"
        },
        {
            "bufferView" : 11,
            "componentType" : 5126,
            "count" : 24,
            "type" : "VEC3"
        },
        {
            "bufferView" : 12,
            "componentType" : 5126,
            "count" : 24,
            "type" : "VEC2"
        },
        {
            "bufferView" : 13,
            "componentType" : 5123,
            "count" : 36,
            "type" : "SCALAR"
        }
    ],
    "bufferViews" : [
        {
            "buffer" : 0,
            "byteLength" : 44940,
            "byteOffset" : 0
        },
        {
            "buffer" : 0,
            "byteLength" : 44940,
            "byteOffset" : 44940
        },
        {
            "buffer" : 0,
            "byteLength" : 29960,
            "byteOffset" : 89880
        },
        {
            "buffer" : 0,
            "byteLength" : 27924,
            "byteOffset" : 119840
        },
        {
            "buffer" : 0,
            "byteLength" : 5800,
            "byteOffset" : 147764
        },
        {
            "buffer" : 0,
            "byteLength" : 24108,
            "byteOffset" : 153564
        },
        {
            "buffer" : 0,
            "byteLength" : 24108,
            "byteOffset" : 177672
        },
        {
            "buffer" : 0,
            "byteLength" : 16072,
            "byteOffset" : 201780
        },
        {
            "buffer" : 0,
            "byteLength" : 6588,
            "byteOffset" : 217852
        },
        {
            "buffer" : 0,
            "byteLength" : 5809,
            "byteOffset" : 224440
        },
        {
            "buffer" : 0,
            "byteLength" : 288,
            "byteOffset" : 230252
        },
        {
            "buffer" : 0,
            "byteLength" : 288,
            "byteOffset" : 230540
        },
        {
            "buffer" : 0,
            "byteLength" : 192,
            "byteOffset" : 230828
        },
        {
            "buffer" : 0,
            "byteLength" : 72,
            "byteOffset" : 231020
        }
    ],
    "samplers" : [
        {
            "magFilter" : 9729,
            "minFilter" : 9987
        }
    ],
    "buffers" : [
        {
            "byteLength" : 231092,
            "uri" : "data:application/octet-stream;base64,"
        }
    ]
}
