{
	"asset":{
		"generator":"Khronos glTF Blender I/O v3.6.27",
		"version":"2.0"
	},
	"extensionsUsed":[
		"KHR_materials_specular",
		"KHR_materials_ior"
	],
	"scene":0,
	"scenes":[
		{
			"name":"Scene",
			"nodes":[
				0,
				1,
				2,
				3
			]
		}
	],
	"nodes":[
		{
			"mesh":0,
			"name":"Circle",
			"rotation":[
				-0.012052000500261784,
				0.000733256689272821,
				0.07785120606422424,
				0.9968918561935425
			],
			"scale":[
				0.6775562167167664,
				0.6775562167167664,
				0.6775562167167664
			],
			"translation":[
				-6.027071952819824,
				3.340344190597534,
				22.25132942199707
			]
		},
		{
			"mesh":1,
			"name":"dummy",
			"rotation":[
				0.6963868737220764,
				0.055567603558301926,
				0.05453062430024147,
				0.7134311199188232
			],
			"scale":[
				0.5429415702819824,
				0.5429416298866272,
				0.5429415702819824
			],
			"translation":[
				-5.957083702087402,
				2.866273880004883,
				22.262807846069336
			]
		},
		{
			"mesh":2,
			"name":"Circle.001",
			"rotation":[
				-0.04361938312649727,
				0,
				0,
				0.9990482330322266
			],
			"scale":[
				1.646999478340149,
				1.646999478340149,
				1.646999478340149
			],
			"translation":[
				-8.971665382385254,
				1.9988999366760254,
				22.25132942199707
			]
		},
		{
			"mesh":3,
			"name":"Circle.003",
			"rotation":[
				-0.33352887630462646,
				-0.21389760076999664,
				0.05731368809938431,
				0.9163631796836853
			],
			"scale":[
				1.646999478340149,
				1.646999478340149,
				1.646999478340149
			],
			"translation":[
				-7.073167324066162,
				4.494728088378906,
				22.25132942199707
			]
		}
	],
	"materials":[
		{
			"doubleSided":true,
			"name":"FishingHat",
			"pbrMetallicRoughness":{
				"baseColorTexture":{
					"index":0
				},
				"metallicFactor":0,
				"roughnessFactor":0.5
			}
		},
		{
			"alphaMode":"BLEND",
			"doubleSided":true,
			"extensions":{
				"KHR_materials_specular":{
					"specularColorFactor":[
						0.14879107480351855,
						0.14879107480351855,
						0.14879107480351855
					]
				},
				"KHR_materials_ior":{
					"ior":1.4500000476837158
				}
			},
			"name":"Dummy1Mtl",
			"pbrMetallicRoughness":{
				"baseColorTexture":{
					"index":1
				},
				"metallicFactor":0
			}
		},
		{
			"alphaMode":"BLEND",
			"doubleSided":true,
			"extensions":{
				"KHR_materials_specular":{
					"specularColorFactor":[
						0.05584531732411415,
						0.05584531732411415,
						0.05584531732411415
					]
				},
				"KHR_materials_ior":{
					"ior":1.4500000476837158
				}
			},
			"name":"Humanoidrootpart1Mtl",
			"pbrMetallicRoughness":{
				"baseColorFactor":[
					0.37361499667167664,
					0.3685910105705261,
					0.383774995803833,
					0.5019609928131104
				],
				"metallicFactor":0
			}
		},
		{
			"doubleSided":true,
			"name":"FishingHat.001",
			"pbrMetallicRoughness":{
				"baseColorTexture":{
					"index":2
				},
				"metallicFactor":0,
				"roughnessFactor":0.5
			}
		},
		{
			"doubleSided":true,
			"name":"FishingHat.003",
			"pbrMetallicRoughness":{
				"baseColorTexture":{
					"index":3
				},
				"metallicFactor":0,
				"roughnessFactor":0.5
			}
		}
	],
	"meshes":[
		{
			"name":"Circle",
			"primitives":[
				{
					"attributes":{
						"POSITION":0,
						"NORMAL":1,
						"TEXCOORD_0":2
					},
					"indices":3,
					"material":0
				}
			]
		},
		{
			"name":"dummy",
			"primitives":[
				{
					"attributes":{
						"POSITION":4,
						"NORMAL":5,
						"TEXCOORD_0":6
					},
					"indices":7,
					"material":1
				},
				{
					"attributes":{
						"POSITION":8,
						"NORMAL":9,
						"TEXCOORD_0":10
					},
					"indices":11,
					"material":2
				}
			]
		},
		{
			"name":"Circle.001",
			"primitives":[
				{
					"attributes":{
						"POSITION":12,
						"NORMAL":13,
						"TEXCOORD_0":14
					},
					"indices":3,
					"material":3
				}
			]
		},
		{
			"name":"Circle.003",
			"primitives":[
				{
					"attributes":{
						"POSITION":15,
						"NORMAL":16,
						"TEXCOORD_0":17
					},
					"indices":3,
					"material":4
				}
			]
		}
	],
	"textures":[
		{
			"sampler":0,
			"source":0
		},
		{
			"sampler":0,
			"source":1
		},
		{
			"sampler":0,
			"source":0
		},
		{
			"sampler":0,
			"source":0
		}
	],
	"images":[
		{
			"bufferView":4,
			"mimeType":"image/png",
			"name":"Untitled"
		},
		{
			"bufferView":9,
			"mimeType":"image/png",
			"name":"Dummy1_diff"
		}
	],
	"accessors":[
		{
			"bufferView":0,
			"componentType":5126,
			"count":3741,
			"max":[
				0.8597493767738342,
				1.5689926147460938,
				0.8566612601280212
			],
			"min":[
				-0.8685638904571533,
				0.8816391825675964,
				-0.8601188063621521
			],
			"type":"VEC3"
		},
		{
			"bufferView":1,
			"componentType":5126,
			"count":3741,
			"type":"VEC3"
		},
		{
			"bufferView":2,
			"componentType":5126,
			"count":3741,
			"type":"VEC2"
		},
		{
			"bufferView":3,
			"componentType":5123,
			"count":13962,
			"type":"SCALAR"
		},
		{
			"bufferView":5,
			"componentType":5126,
			"count":1145,
			"max":[
				1.9999752044677734,
				0.5989093780517578,
				2.611194133758545
			],
			"min":[
				-1.9999847412109375,
				-0.5988922119140625,
				-2.490015983581543
			],
			"type":"VEC3"
		},
		{
			"bufferView":6,
			"componentType":5126,
			"count":1145,
			"type":"VEC3"
		},
		{
			"bufferView":7,
			"componentType":5126,
			"count":1145,
			"type":"VEC2"
		},
		{
			"bufferView":8,
			"componentType":5123,
			"count":3294,
			"type":"SCALAR"
		},
		{
			"bufferView":10,
			"componentType":5126,
			"count":24,
			"max":[
				0.9999752044677734,
				0.5000095367431641,
				0.6111941337585449
			],
			"min":[
				-0.9999847412109375,
				-0.49999046325683594,
				-1.388805866241455
			],
			"type":"VEC3"
		},
		{
			"bufferView":11,
			"componentType":5126,
			"count":24,
			"type":"VEC3"
		},
		{
			"bufferView":12,
			"componentType":5126,
			"count":24,
			"type":"VEC2"
		},
		{
			"bufferView":13,
			"componentType":5123,
			"count":36,
			"type":"SCALAR"
		},
		{
			"bufferView":14,
			"componentType":5126,
			"count":3741,
			"max":[
				0.8597493767738342,
				1.5689926147460938,
				0.8566612601280212
			],
			"min":[
				-0.8685638904571533,
				0.8816391825675964,
				-0.8601188063621521
			],
			"type":"VEC3"
		},
		{
			"bufferView":15,
			"componentType":5126,
			"count":3741,
			"type":"VEC3"
		},
		{
			"bufferView":16,
			"componentType":5126,
			"count":3741,
			"type":"VEC2"
		},
		{
			"bufferView":17,
			"componentType":5126,
			"count":3741,
			"max":[
				0.8597493767738342,
				1.5689926147460938,
				0.8566612601280212
			],
			"min":[
				-0.8685638904571533,
				0.8816391825675964,
				-0.8601188063621521
			],
			"type":"VEC3"
		},
		{
			"bufferView":18,
			"componentType":5126,
			"count":3741,
			"type":"VEC3"
		},
		{
			"bufferView":19,
			"componentType":5126,
			"count":3741,
			"type":"VEC2"
		}
	],
	"bufferViews":[
		{
			"buffer":0,
			"byteLength":44892,
			"byteOffset":0,
			"target":34962
		},
		{
			"buffer":0,
			"byteLength":44892,
			"byteOffset":44892,
			"target":34962
		},
		{
			"buffer":0,
			"byteLength":29928,
			"byteOffset":89784,
			"target":34962
		},
		{
			"buffer":0,
			"byteLength":27924,
			"byteOffset":119712,
			"target":34963
		},
		{
			"buffer":0,
			"byteLength":5800,
			"byteOffset":147636
		},
		{
			"buffer":0,
			"byteLength":13740,
			"byteOffset":153436,
			"target":34962
		},
		{
			"buffer":0,
			"byteLength":13740,
			"byteOffset":167176,
			"target":34962
		},
		{
			"buffer":0,
			"byteLength":9160,
			"byteOffset":180916,
			"target":34962
		},
		{
			"buffer":0,
			"byteLength":6588,
			"byteOffset":190076,
			"target":34963
		},
		{
			"buffer":0,
			"byteLength":5809,
			"byteOffset":196664
		},
		{
			"buffer":0,
			"byteLength":288,
			"byteOffset":202476,
			"target":34962
		},
		{
			"buffer":0,
			"byteLength":288,
			"byteOffset":202764,
			"target":34962
		},
		{
			"buffer":0,
			"byteLength":192,
			"byteOffset":203052,
			"target":34962
		},
		{
			"buffer":0,
			"byteLength":72,
			"byteOffset":203244,
			"target":34963
		},
		{
			"buffer":0,
			"byteLength":44892,
			"byteOffset":203316,
			"target":34962
		},
		{
			"buffer":0,
			"byteLength":44892,
			"byteOffset":248208,
			"target":34962
		},
		{
			"buffer":0,
			"byteLength":29928,
			"byteOffset":293100,
			"target":34962
		},
		{
			"buffer":0,
			"byteLength":44892,
			"byteOffset":323028,
			"target":34962
		},
		{
			"buffer":0,
			"byteLength":44892,
			"byteOffset":367920,
			"target":34962
		},
		{
			"buffer":0,
			"byteLength":29928,
			"byteOffset":412812,
			"target":34962
		}
	],
	"samplers":[
		{
			"magFilter":9729,
			"minFilter":9987
		}
	],
	"buffers":[
		{
			"byteLength":442740,
			"uri":"data:application/octet-stream;base64,"
		}
	]
}
